
      <svg data-logo="logo" xmlns="http://www.w3.org/2000/svg" viewBox="0 0 234 36">
        <g id="logogram" transform="translate(0, 1) rotate(0)"><path d="M15.4992 0H36.5808L21.0816 22.9729H0L15.4992 0Z" fill="#007AFF"/><path d="M16.4224 25.102L10.4192 34H32.5008L48 11.0271H31.7024L22.2064 25.102H16.4224Z" fill="#312ECB"/></g>
        <g id="logotype" transform="translate(54, 4)"><path fill="#6721e8" d="M8.80 0.87L13.56 0.87Q13.11 2.76 13.02 4.72Q12.93 6.68 12.93 8.64L12.93 8.64L12.93 20.23Q12.93 22.19 13.02 24.15Q13.11 26.11 13.56 28L13.56 28L8.80 28Q9.26 26.11 9.34 24.15Q9.43 22.19 9.43 20.23L9.43 20.23L9.43 8.64Q9.43 6.68 9.34 4.72Q9.26 2.76 8.80 0.87L8.80 0.87ZM31.45 20.23L31.45 17.53Q31.45 16.41 31.34 15.28Q31.23 14.14 30.89 13.19Q30.54 12.25 29.77 11.65Q29.00 11.06 27.66 11.06L27.66 11.06Q25.60 11.06 24.50 12.04Q23.39 13.02 22.96 14.52Q22.52 16.03 22.41 17.67L22.41 17.67L22.41 20.23Q22.41 22.19 22.50 24.15Q22.59 26.11 23.05 28L23.05 28L18.46 28Q18.91 26.11 19.00 24.15Q19.09 22.19 19.09 20.23L19.09 20.23L19.09 16.45Q19.09 14.56 18.95 13.35Q18.81 12.14 18.53 11.30Q18.25 10.46 17.76 9.69L17.76 9.69L17.76 9.48L22.41 8.50L22.41 11.34L22.66 11.34Q23.19 10.46 23.80 9.78Q24.41 9.10 25.43 8.68Q26.44 8.26 28.16 8.26L28.16 8.26Q30.26 8.26 31.57 9.05Q32.88 9.83 33.56 11.16Q34.25 12.49 34.51 14.14Q34.77 15.78 34.77 17.53L34.77 17.53L34.77 20.23Q34.77 22.19 34.86 24.15Q34.95 26.11 35.40 28L35.40 28L30.82 28Q31.27 26.11 31.36 24.15Q31.45 22.19 31.45 20.23L31.45 20.23ZM52.13 8.75L56.58 8.75Q55.70 10.04 54.93 11.58Q54.16 13.12 53.04 15.75L53.04 15.75L48 28L44.85 28L39.81 15.75Q38.73 13.12 37.94 11.58Q37.15 10.04 36.27 8.75L36.27 8.75L40.97 8.75Q41.17 10.01 41.66 11.50Q42.16 12.98 43.13 15.47L43.13 15.47L46.46 24.08L49.92 15.47Q50.94 12.98 51.41 11.50Q51.89 10.01 52.13 8.75L52.13 8.75ZM66.03 28.49L66.03 28.49Q63.26 28.49 61.07 27.16Q58.89 25.83 57.64 23.54Q56.40 21.24 56.40 18.41L56.40 18.41Q56.40 15.54 57.64 13.25Q58.89 10.95 61.07 9.61Q63.26 8.26 66.03 8.26L66.03 8.26Q68.83 8.26 71.00 9.61Q73.17 10.95 74.43 13.25Q75.69 15.54 75.69 18.41L75.69 18.41Q75.69 21.24 74.43 23.54Q73.17 25.83 71.00 27.16Q68.83 28.49 66.03 28.49ZM65.99 25.69L65.99 25.69Q67.81 25.69 69.21 24.76Q70.61 23.84 71.43 22.19Q72.25 20.54 72.25 18.41L72.25 18.41Q72.25 16.24 71.43 14.58Q70.61 12.91 69.21 11.99Q67.81 11.06 65.99 11.06L65.99 11.06Q64.20 11.06 62.80 12.00Q61.41 12.95 60.62 14.59Q59.83 16.24 59.83 18.41L59.83 18.41Q59.83 20.54 60.62 22.19Q61.41 23.84 62.80 24.76Q64.20 25.69 65.99 25.69ZM78.14 3.29L81.00 0.42L83.91 3.29L81.00 6.19L78.14 3.29ZM79.71 20.23L79.71 20.23L79.71 16.45Q79.71 14.56 79.57 13.35Q79.43 12.14 79.15 11.30Q78.87 10.46 78.38 9.69L78.38 9.69L78.38 9.48L83.03 8.50L83.03 20.23Q83.03 22.19 83.12 24.15Q83.21 26.11 83.67 28L83.67 28L79.08 28Q79.53 26.11 79.62 24.15Q79.71 22.19 79.71 20.23ZM102.25 23.13L103.51 24.22Q103.13 24.99 102.27 25.99Q101.41 26.98 99.92 27.74Q98.44 28.49 96.16 28.49L96.16 28.49Q94.20 28.49 92.47 27.72Q90.73 26.95 89.39 25.59Q88.04 24.22 87.29 22.38Q86.53 20.54 86.53 18.41L86.53 18.41Q86.53 16.27 87.29 14.42Q88.04 12.56 89.39 11.18Q90.73 9.80 92.47 9.03Q94.20 8.26 96.16 8.26L96.16 8.26Q98.33 8.26 99.89 8.85Q101.44 9.45 102.46 10.29L102.46 10.29L102.36 14.28L102.11 14.28Q101.34 12.98 99.92 12.02Q98.50 11.06 96.16 11.06L96.16 11.06Q94.27 11.06 92.89 12.00Q91.50 12.95 90.73 14.59Q89.97 16.24 89.97 18.41L89.97 18.41Q89.97 20.61 90.96 22.26Q91.96 23.91 93.57 24.80Q95.18 25.69 96.97 25.69L96.97 25.69Q98.92 25.69 100.20 24.99Q101.48 24.29 102.25 23.13L102.25 23.13ZM114.71 28.49L114.71 28.49Q112.75 28.49 111.02 27.72Q109.28 26.95 107.94 25.59Q106.59 24.22 105.84 22.38Q105.08 20.54 105.08 18.41L105.08 18.41Q105.08 16.27 105.84 14.42Q106.59 12.56 107.92 11.18Q109.25 9.80 110.98 9.03Q112.72 8.26 114.67 8.26L114.67 8.26Q117.30 8.26 119.08 9.61Q120.87 10.95 121.80 13.25Q122.72 15.54 122.72 18.41L122.72 18.41L108.52 18.41Q108.52 20.41 109.44 22.07Q110.37 23.73 111.96 24.71Q113.55 25.69 115.52 25.69L115.52 25.69Q117.47 25.69 118.75 24.99Q120.03 24.29 120.80 23.13L120.80 23.13L122.06 24.22Q121.67 24.99 120.82 25.99Q119.96 26.98 118.47 27.74Q116.98 28.49 114.71 28.49ZM108.80 15.78L108.80 15.78L119.08 15.78Q118.70 13.61 117.55 12.34Q116.39 11.06 114.33 11.06L114.33 11.06Q112.08 11.06 110.69 12.34Q109.28 13.61 108.80 15.78ZM134.28 28.49L134.28 28.49Q132.31 28.49 130.58 27.72Q128.85 26.95 127.50 25.59Q126.16 24.22 125.40 22.38Q124.65 20.54 124.65 18.41L124.65 18.41Q124.65 16.27 125.40 14.42Q126.16 12.56 127.48 11.18Q128.81 9.80 130.55 9.03Q132.28 8.26 134.24 8.26L134.24 8.26Q136.87 8.26 138.65 9.61Q140.44 10.95 141.36 13.25Q142.29 15.54 142.29 18.41L142.29 18.41L128.08 18.41Q128.08 20.41 129.01 22.07Q129.94 23.73 131.53 24.71Q133.12 25.69 135.08 25.69L135.08 25.69Q137.04 25.69 138.32 24.99Q139.59 24.29 140.37 23.13L140.37 23.13L141.63 24.22Q141.24 24.99 140.38 25.99Q139.53 26.98 138.04 27.74Q136.55 28.49 134.28 28.49ZM128.36 15.78L128.36 15.78L138.65 15.78Q138.26 13.61 137.11 12.34Q135.95 11.06 133.89 11.06L133.89 11.06Q131.65 11.06 130.25 12.34Q128.85 13.61 128.36 15.78ZM146.66 22.23L155.48 0.87L159.06 0.87L167.73 21.88Q168.44 23.41 169.19 24.83Q169.94 26.25 171.03 28L171.03 28L166.09 28Q165.88 26.88 165.50 25.53Q165.11 24.18 164.20 21.88L164.20 21.88L163.39 19.95L151.14 19.95L150.34 21.88Q149.47 24.18 149.06 25.53Q148.66 26.88 148.45 28L148.45 28L143.51 28Q144.60 26.36 145.32 25.01Q146.03 23.66 146.66 22.23L146.66 22.23ZM157.27 5.11L152.30 17.15L162.24 17.15L157.27 5.11ZM173.83 0.87L178.59 0.87Q178.13 2.76 178.04 4.72Q177.96 6.68 177.96 8.64L177.96 8.64L177.96 20.23Q177.96 22.19 178.04 24.15Q178.13 26.11 178.59 28L178.59 28L173.83 28Q174.28 26.11 174.37 24.15Q174.46 22.19 174.46 20.23L174.46 20.23L174.46 8.64Q174.46 6.68 174.37 4.72Q174.28 2.76 173.83 0.87L173.83 0.87Z"/></g>
        
      </svg>
    